<?xml version="1.0" standalone="no"?>
<!DOCTYPE svg PUBLIC "-//W3C//DTD SVG 20010904//EN"
 "http://www.w3.org/TR/2001/REC-SVG-20010904/DTD/svg10.dtd">
<svg version="1.0" xmlns="http://www.w3.org/2000/svg"
 width="167.000000pt" height="111.000000pt" viewBox="0 0 167.000000 111.000000"
 preserveAspectRatio="xMidYMid meet">
<metadata>
Created by potrace 1.10, written by Peter Selinger 2001-2011
</metadata>
<g transform="translate(0.000000,111.000000) scale(0.050000,-0.050000)"
fill="#068ce0" stroke="none">
<path d="M1380 2130 c-146 -33 -335 -123 -439 -209 l-70 -57 130 -59 129 -59
100 55 c228 125 482 129 719 11 l139 -69 117 59 c134 68 133 74 -29 179 -233
151 -536 207 -796 149z"/>
<path d="M0 1843 c0 -10 111 -70 247 -133 l247 -116 -50 -88 c-305 -547 505
-1119 907 -641 l54 64 100 -54 100 -53 99 50 100 51 70 -70 c435 -435 1173 92
896 639 -27 54 -50 99 -50 100 0 1 108 53 240 116 132 64 240 123 240 134 0
10 -120 18 -272 18 l-272 0 -528 -259 -527 -259 -522 259 -521 259 -279 0
c-153 0 -279 -8 -279 -17z m995 -498 c151 -74 278 -137 282 -139 60 -33 -129
-250 -248 -286 -281 -84 -540 261 -380 506 46 70 29 75 346 -81z m1574 56
c137 -303 -175 -603 -468 -451 -69 35 -114 87 -150 175 l-31 73 285 139 c339
166 320 163 364 64z m-995 -236 c25 -5 72 0 105 12 81 28 92 -64 13 -100 -96
-43 -232 -4 -232 66 0 51 6 59 35 47 19 -9 55 -19 79 -25z"/>
<path d="M680 607 c0 -35 173 -236 265 -309 482 -381 1149 -289 1517 210 76
102 73 113 -17 81 -41 -15 -119 -28 -172 -28 -81 -1 -110 -12 -178 -71 -172
-147 -476 -208 -707 -140 -106 30 -311 147 -339 192 -6 10 -54 18 -105 19 -52
0 -130 14 -174 30 -94 33 -90 33 -90 16z"/>
</g>
</svg>
